<?xml version="1.0" encoding="UTF-8" standalone="no"?>
<!DOCTYPE svg PUBLIC "-//W3C//DTD SVG 1.1//EN"
 "http://www.w3.org/Graphics/SVG/1.1/DTD/svg11.dtd">
<!-- Generated by graphviz version 2.43.0 (0)
 -->
<!-- Title: snakemake_dag Pages: 1 -->
<svg width="585pt" height="404pt"
 viewBox="0.00 0.00 585.00 404.00" xmlns="http://www.w3.org/2000/svg" xmlns:xlink="http://www.w3.org/1999/xlink">
<g id="graph0" class="graph" transform="scale(1 1) rotate(0) translate(4 400)">
<title>snakemake_dag</title>
<polygon fill="white" stroke="transparent" points="-4,4 -4,-400 581,-400 581,4 -4,4"/>
<!-- 0 -->
<g id="node1" class="node">
<title>0</title>
<path fill="none" stroke="#59d856" stroke-width="2" d="M282,-36C282,-36 252,-36 252,-36 246,-36 240,-30 240,-24 240,-24 240,-12 240,-12 240,-6 246,0 252,0 252,0 282,0 282,0 288,0 294,-6 294,-12 294,-12 294,-24 294,-24 294,-30 288,-36 282,-36"/>
<text text-anchor="middle" x="267" y="-15.5" font-family="sans" font-size="10.00">all</text>
</g>
<!-- 1 -->
<g id="node2" class="node">
<title>1</title>
<path fill="none" stroke="#56d8a9" stroke-width="2" d="M282,-108C282,-108 252,-108 252,-108 246,-108 240,-102 240,-96 240,-96 240,-84 240,-84 240,-78 246,-72 252,-72 252,-72 282,-72 282,-72 288,-72 294,-78 294,-84 294,-84 294,-96 294,-96 294,-102 288,-108 282,-108"/>
<text text-anchor="middle" x="267" y="-87.5" font-family="sans" font-size="10.00">report</text>
</g>
<!-- 1&#45;&gt;0 -->
<g id="edge1" class="edge">
<title>1&#45;&gt;0</title>
<path fill="none" stroke="grey" stroke-width="2" d="M267,-71.7C267,-63.98 267,-54.71 267,-46.11"/>
<polygon fill="grey" stroke="grey" stroke-width="2" points="270.5,-46.1 267,-36.1 263.5,-46.1 270.5,-46.1"/>
</g>
<!-- 2 -->
<g id="node3" class="node">
<title>2</title>
<path fill="none" stroke="#d85656" stroke-width="2" d="M294,-180C294,-180 240,-180 240,-180 234,-180 228,-174 228,-168 228,-168 228,-156 228,-156 228,-150 234,-144 240,-144 240,-144 294,-144 294,-144 300,-144 306,-150 306,-156 306,-156 306,-168 306,-168 306,-174 300,-180 294,-180"/>
<text text-anchor="middle" x="267" y="-159.5" font-family="sans" font-size="10.00">bcftools_call</text>
</g>
<!-- 2&#45;&gt;1 -->
<g id="edge2" class="edge">
<title>2&#45;&gt;1</title>
<path fill="none" stroke="grey" stroke-width="2" d="M267,-143.7C267,-135.98 267,-126.71 267,-118.11"/>
<polygon fill="grey" stroke="grey" stroke-width="2" points="270.5,-118.1 267,-108.1 263.5,-118.1 270.5,-118.1"/>
</g>
<!-- 3 -->
<g id="node4" class="node">
<title>3</title>
<path fill="none" stroke="#d8ac56" stroke-width="2" d="M74,-324C74,-324 12,-324 12,-324 6,-324 0,-318 0,-312 0,-312 0,-300 0,-300 0,-294 6,-288 12,-288 12,-288 74,-288 74,-288 80,-288 86,-294 86,-300 86,-300 86,-312 86,-312 86,-318 80,-324 74,-324"/>
<text text-anchor="middle" x="43" y="-303.5" font-family="sans" font-size="10.00">samtools_sort</text>
</g>
<!-- 3&#45;&gt;2 -->
<g id="edge3" class="edge">
<title>3&#45;&gt;2</title>
<path fill="none" stroke="grey" stroke-width="2" d="M31.71,-287.66C20.58,-268.16 7.45,-236.55 24,-216 47.83,-186.41 153.7,-172.46 217.57,-166.63"/>
<polygon fill="grey" stroke="grey" stroke-width="2" points="218.17,-170.09 227.83,-165.73 217.56,-163.11 218.17,-170.09"/>
</g>
<!-- 11 -->
<g id="node12" class="node">
<title>11</title>
<path fill="none" stroke="#56a9d8" stroke-width="2" d="M115,-252C115,-252 45,-252 45,-252 39,-252 33,-246 33,-240 33,-240 33,-228 33,-228 33,-222 39,-216 45,-216 45,-216 115,-216 115,-216 121,-216 127,-222 127,-228 127,-228 127,-240 127,-240 127,-246 121,-252 115,-252"/>
<text text-anchor="middle" x="80" y="-231.5" font-family="sans" font-size="10.00">samtools_index</text>
</g>
<!-- 3&#45;&gt;11 -->
<g id="edge15" class="edge">
<title>3&#45;&gt;11</title>
<path fill="none" stroke="grey" stroke-width="2" d="M52.15,-287.7C56.4,-279.64 61.56,-269.89 66.27,-260.98"/>
<polygon fill="grey" stroke="grey" stroke-width="2" points="69.38,-262.58 70.96,-252.1 63.19,-259.31 69.38,-262.58"/>
</g>
<!-- 4 -->
<g id="node5" class="node">
<title>4</title>
<path fill="none" stroke="#afd856" stroke-width="2" d="M63.5,-396C63.5,-396 22.5,-396 22.5,-396 16.5,-396 10.5,-390 10.5,-384 10.5,-384 10.5,-372 10.5,-372 10.5,-366 16.5,-360 22.5,-360 22.5,-360 63.5,-360 63.5,-360 69.5,-360 75.5,-366 75.5,-372 75.5,-372 75.5,-384 75.5,-384 75.5,-390 69.5,-396 63.5,-396"/>
<text text-anchor="middle" x="43" y="-381" font-family="sans" font-size="10.00">bwa_map</text>
<text text-anchor="middle" x="43" y="-370" font-family="sans" font-size="10.00">sample: A</text>
</g>
<!-- 4&#45;&gt;3 -->
<g id="edge11" class="edge">
<title>4&#45;&gt;3</title>
<path fill="none" stroke="grey" stroke-width="2" d="M43,-359.7C43,-351.98 43,-342.71 43,-334.11"/>
<polygon fill="grey" stroke="grey" stroke-width="2" points="46.5,-334.1 43,-324.1 39.5,-334.1 46.5,-334.1"/>
</g>
<!-- 5 -->
<g id="node6" class="node">
<title>5</title>
<path fill="none" stroke="#d8ac56" stroke-width="2" d="M224,-324C224,-324 162,-324 162,-324 156,-324 150,-318 150,-312 150,-312 150,-300 150,-300 150,-294 156,-288 162,-288 162,-288 224,-288 224,-288 230,-288 236,-294 236,-300 236,-300 236,-312 236,-312 236,-318 230,-324 224,-324"/>
<text text-anchor="middle" x="193" y="-303.5" font-family="sans" font-size="10.00">samtools_sort</text>
</g>
<!-- 5&#45;&gt;2 -->
<g id="edge4" class="edge">
<title>5&#45;&gt;2</title>
<path fill="none" stroke="grey" stroke-width="2" d="M182.54,-287.8C172.58,-269 160.9,-238.54 174,-216 183.77,-199.19 201.09,-187.27 218.15,-179.04"/>
<polygon fill="grey" stroke="grey" stroke-width="2" points="219.85,-182.12 227.56,-174.85 217,-175.73 219.85,-182.12"/>
</g>
<!-- 12 -->
<g id="node13" class="node">
<title>12</title>
<path fill="none" stroke="#56a9d8" stroke-width="2" d="M265,-252C265,-252 195,-252 195,-252 189,-252 183,-246 183,-240 183,-240 183,-228 183,-228 183,-222 189,-216 195,-216 195,-216 265,-216 265,-216 271,-216 277,-222 277,-228 277,-228 277,-240 277,-240 277,-246 271,-252 265,-252"/>
<text text-anchor="middle" x="230" y="-231.5" font-family="sans" font-size="10.00">samtools_index</text>
</g>
<!-- 5&#45;&gt;12 -->
<g id="edge16" class="edge">
<title>5&#45;&gt;12</title>
<path fill="none" stroke="grey" stroke-width="2" d="M202.15,-287.7C206.4,-279.64 211.56,-269.89 216.27,-260.98"/>
<polygon fill="grey" stroke="grey" stroke-width="2" points="219.38,-262.58 220.96,-252.1 213.19,-259.31 219.38,-262.58"/>
</g>
<!-- 6 -->
<g id="node7" class="node">
<title>6</title>
<path fill="none" stroke="#afd856" stroke-width="2" d="M213.5,-396C213.5,-396 172.5,-396 172.5,-396 166.5,-396 160.5,-390 160.5,-384 160.5,-384 160.5,-372 160.5,-372 160.5,-366 166.5,-360 172.5,-360 172.5,-360 213.5,-360 213.5,-360 219.5,-360 225.5,-366 225.5,-372 225.5,-372 225.5,-384 225.5,-384 225.5,-390 219.5,-396 213.5,-396"/>
<text text-anchor="middle" x="193" y="-381" font-family="sans" font-size="10.00">bwa_map</text>
<text text-anchor="middle" x="193" y="-370" font-family="sans" font-size="10.00">sample: B</text>
</g>
<!-- 6&#45;&gt;5 -->
<g id="edge12" class="edge">
<title>6&#45;&gt;5</title>
<path fill="none" stroke="grey" stroke-width="2" d="M193,-359.7C193,-351.98 193,-342.71 193,-334.11"/>
<polygon fill="grey" stroke="grey" stroke-width="2" points="196.5,-334.1 193,-324.1 189.5,-334.1 196.5,-334.1"/>
</g>
<!-- 7 -->
<g id="node8" class="node">
<title>7</title>
<path fill="none" stroke="#d8ac56" stroke-width="2" d="M392,-324C392,-324 330,-324 330,-324 324,-324 318,-318 318,-312 318,-312 318,-300 318,-300 318,-294 324,-288 330,-288 330,-288 392,-288 392,-288 398,-288 404,-294 404,-300 404,-300 404,-312 404,-312 404,-318 398,-324 392,-324"/>
<text text-anchor="middle" x="361" y="-303.5" font-family="sans" font-size="10.00">samtools_sort</text>
</g>
<!-- 7&#45;&gt;2 -->
<g id="edge5" class="edge">
<title>7&#45;&gt;2</title>
<path fill="none" stroke="grey" stroke-width="2" d="M348.83,-287.93C341.53,-277.6 332.11,-264.13 324,-252 309.93,-230.96 294.47,-206.75 283.21,-188.9"/>
<polygon fill="grey" stroke="grey" stroke-width="2" points="286.02,-186.79 277.73,-180.19 280.09,-190.52 286.02,-186.79"/>
</g>
<!-- 13 -->
<g id="node14" class="node">
<title>13</title>
<path fill="none" stroke="#56a9d8" stroke-width="2" d="M415,-252C415,-252 345,-252 345,-252 339,-252 333,-246 333,-240 333,-240 333,-228 333,-228 333,-222 339,-216 345,-216 345,-216 415,-216 415,-216 421,-216 427,-222 427,-228 427,-228 427,-240 427,-240 427,-246 421,-252 415,-252"/>
<text text-anchor="middle" x="380" y="-231.5" font-family="sans" font-size="10.00">samtools_index</text>
</g>
<!-- 7&#45;&gt;13 -->
<g id="edge17" class="edge">
<title>7&#45;&gt;13</title>
<path fill="none" stroke="grey" stroke-width="2" d="M365.7,-287.7C367.81,-279.9 370.36,-270.51 372.72,-261.83"/>
<polygon fill="grey" stroke="grey" stroke-width="2" points="376.12,-262.67 375.36,-252.1 369.36,-260.84 376.12,-262.67"/>
</g>
<!-- 8 -->
<g id="node9" class="node">
<title>8</title>
<path fill="none" stroke="#afd856" stroke-width="2" d="M381.5,-396C381.5,-396 340.5,-396 340.5,-396 334.5,-396 328.5,-390 328.5,-384 328.5,-384 328.5,-372 328.5,-372 328.5,-366 334.5,-360 340.5,-360 340.5,-360 381.5,-360 381.5,-360 387.5,-360 393.5,-366 393.5,-372 393.5,-372 393.5,-384 393.5,-384 393.5,-390 387.5,-396 381.5,-396"/>
<text text-anchor="middle" x="361" y="-381" font-family="sans" font-size="10.00">bwa_map</text>
<text text-anchor="middle" x="361" y="-370" font-family="sans" font-size="10.00">sample: C</text>
</g>
<!-- 8&#45;&gt;7 -->
<g id="edge13" class="edge">
<title>8&#45;&gt;7</title>
<path fill="none" stroke="grey" stroke-width="2" d="M361,-359.7C361,-351.98 361,-342.71 361,-334.11"/>
<polygon fill="grey" stroke="grey" stroke-width="2" points="364.5,-334.1 361,-324.1 357.5,-334.1 364.5,-334.1"/>
</g>
<!-- 9 -->
<g id="node10" class="node">
<title>9</title>
<path fill="none" stroke="#d8ac56" stroke-width="2" d="M504,-324C504,-324 442,-324 442,-324 436,-324 430,-318 430,-312 430,-312 430,-300 430,-300 430,-294 436,-288 442,-288 442,-288 504,-288 504,-288 510,-288 516,-294 516,-300 516,-300 516,-312 516,-312 516,-318 510,-324 504,-324"/>
<text text-anchor="middle" x="473" y="-303.5" font-family="sans" font-size="10.00">samtools_sort</text>
</g>
<!-- 9&#45;&gt;2 -->
<g id="edge6" class="edge">
<title>9&#45;&gt;2</title>
<path fill="none" stroke="grey" stroke-width="2" d="M470.32,-287.76C466.31,-267.75 456.88,-235.08 436,-216 403.11,-185.95 353.32,-172.94 316.29,-167.3"/>
<polygon fill="grey" stroke="grey" stroke-width="2" points="316.6,-163.81 306.21,-165.9 315.64,-170.75 316.6,-163.81"/>
</g>
<!-- 14 -->
<g id="node15" class="node">
<title>14</title>
<path fill="none" stroke="#56a9d8" stroke-width="2" d="M565,-252C565,-252 495,-252 495,-252 489,-252 483,-246 483,-240 483,-240 483,-228 483,-228 483,-222 489,-216 495,-216 495,-216 565,-216 565,-216 571,-216 577,-222 577,-228 577,-228 577,-240 577,-240 577,-246 571,-252 565,-252"/>
<text text-anchor="middle" x="530" y="-231.5" font-family="sans" font-size="10.00">samtools_index</text>
</g>
<!-- 9&#45;&gt;14 -->
<g id="edge18" class="edge">
<title>9&#45;&gt;14</title>
<path fill="none" stroke="grey" stroke-width="2" d="M487.09,-287.7C493.92,-279.3 502.26,-269.07 509.76,-259.86"/>
<polygon fill="grey" stroke="grey" stroke-width="2" points="512.47,-262.07 516.07,-252.1 507.04,-257.65 512.47,-262.07"/>
</g>
<!-- 10 -->
<g id="node11" class="node">
<title>10</title>
<path fill="none" stroke="#afd856" stroke-width="2" d="M494,-396C494,-396 452,-396 452,-396 446,-396 440,-390 440,-384 440,-384 440,-372 440,-372 440,-366 446,-360 452,-360 452,-360 494,-360 494,-360 500,-360 506,-366 506,-372 506,-372 506,-384 506,-384 506,-390 500,-396 494,-396"/>
<text text-anchor="middle" x="473" y="-381" font-family="sans" font-size="10.00">bwa_map</text>
<text text-anchor="middle" x="473" y="-370" font-family="sans" font-size="10.00">sample: D</text>
</g>
<!-- 10&#45;&gt;9 -->
<g id="edge14" class="edge">
<title>10&#45;&gt;9</title>
<path fill="none" stroke="grey" stroke-width="2" d="M473,-359.7C473,-351.98 473,-342.71 473,-334.11"/>
<polygon fill="grey" stroke="grey" stroke-width="2" points="476.5,-334.1 473,-324.1 469.5,-334.1 476.5,-334.1"/>
</g>
<!-- 11&#45;&gt;2 -->
<g id="edge7" class="edge">
<title>11&#45;&gt;2</title>
<path fill="none" stroke="grey" stroke-width="2" d="M125.75,-215.88C153.82,-205.37 189.75,-191.92 218.34,-181.21"/>
<polygon fill="grey" stroke="grey" stroke-width="2" points="219.6,-184.48 227.74,-177.7 217.14,-177.93 219.6,-184.48"/>
</g>
<!-- 12&#45;&gt;2 -->
<g id="edge8" class="edge">
<title>12&#45;&gt;2</title>
<path fill="none" stroke="grey" stroke-width="2" d="M239.15,-215.7C243.4,-207.64 248.56,-197.89 253.27,-188.98"/>
<polygon fill="grey" stroke="grey" stroke-width="2" points="256.38,-190.58 257.96,-180.1 250.19,-187.31 256.38,-190.58"/>
</g>
<!-- 13&#45;&gt;2 -->
<g id="edge9" class="edge">
<title>13&#45;&gt;2</title>
<path fill="none" stroke="grey" stroke-width="2" d="M352.36,-215.88C337.58,-206.72 319.21,-195.34 303.3,-185.48"/>
<polygon fill="grey" stroke="grey" stroke-width="2" points="305.09,-182.48 294.75,-180.19 301.41,-188.43 305.09,-182.48"/>
</g>
<!-- 14&#45;&gt;2 -->
<g id="edge10" class="edge">
<title>14&#45;&gt;2</title>
<path fill="none" stroke="grey" stroke-width="2" d="M482.73,-219.75C478.09,-218.47 473.46,-217.21 469,-216 416.78,-201.87 356.82,-186.21 315.87,-175.6"/>
<polygon fill="grey" stroke="grey" stroke-width="2" points="316.71,-172.2 306.15,-173.08 314.95,-178.98 316.71,-172.2"/>
</g>
</g>
</svg>
